<svg width="300" height="300" viewBox="0 0 300 300" fill="none" xmlns="http://www.w3.org/2000/svg">
<rect x="2" y="2" width="296" height="296" rx="22" fill="#E5E5E5"/>
<rect x="2" y="2" width="296" height="296" rx="22" stroke="#353431" stroke-width="4"/>
<path d="M37.5 112.5C37.5 98.6929 48.6929 87.5 62.5 87.5H81.25C89.1189 87.5 96.5286 83.7951 101.25 77.5L114.375 60C119.096 53.7049 126.506 50 134.375 50H165.625C173.494 50 180.904 53.7049 185.625 60L198.75 77.5C203.471 83.7951 210.881 87.5 218.75 87.5H237.5C251.308 87.5 262.5 98.6929 262.5 112.5V225C262.5 238.808 251.308 250 237.5 250H62.5C48.6929 250 37.5 238.808 37.5 225V112.5Z" stroke="#727272" stroke-width="8" stroke-linecap="round" stroke-linejoin="round"/>
<path d="M150 212.5C177.614 212.5 200 190.114 200 162.5C200 134.886 177.614 112.5 150 112.5C122.386 112.5 100 134.886 100 162.5C100 190.114 122.386 212.5 150 212.5Z" stroke="#727272" stroke-width="8" stroke-linecap="round" stroke-linejoin="round"/>
</svg>
