<svg width="16" height="16" viewBox="0 0 16 16" fill="none" xmlns="http://www.w3.org/2000/svg">
<g clip-path="url(#clip0_2729_1668)">
<path d="M6.66667 9.78397V9.74263C6.66667 8.07063 8.01067 6.66397 9.83533 6.25397C9.59267 4.7193 7.97267 3.46663 5.93333 3.46663C3.72 3.46663 2 4.94197 2 6.6533C2 7.2993 2.24 7.91997 2.69333 8.45197C2.71467 8.4773 2.74867 8.51463 2.79467 8.56197C3.1866 8.96477 3.42325 9.49334 3.46267 10.054C3.93873 9.77876 4.49465 9.67477 5.038 9.7593C5.14867 9.77663 5.23933 9.78997 5.308 9.7993C5.75939 9.85794 6.21679 9.85255 6.66667 9.7833V9.78397ZM6.97133 11.0846C6.36485 11.1888 5.74616 11.2011 5.136 11.1213C5.03494 11.1076 4.93404 11.0927 4.83333 11.0766C4.58419 11.0378 4.32932 11.0878 4.11333 11.218L2.844 11.9833C2.74624 12.0435 2.63176 12.0709 2.51733 12.0613C2.44813 12.0561 2.38064 12.0372 2.31872 12.0059C2.25681 11.9745 2.2017 11.9312 2.15655 11.8785C2.1114 11.8258 2.0771 11.7647 2.05561 11.6987C2.03412 11.6327 2.02587 11.5632 2.03133 11.494L2.13133 10.3066C2.14379 10.1577 2.12411 10.0078 2.07362 9.86716C2.02313 9.72649 1.943 9.59831 1.83867 9.4913C1.78325 9.43482 1.72967 9.37656 1.678 9.31663C1.042 8.56997 0.666667 7.64863 0.666667 6.65263C0.666667 4.15663 3.02467 2.1333 5.93333 2.1333C8.64 2.1333 10.8687 3.88463 11.1667 6.13863C13.4147 6.24063 15.2 7.8153 15.2 9.74263C15.2 10.538 14.896 11.2733 14.3807 11.8693C14.3467 11.9093 14.3033 11.956 14.2507 12.0093C14.1664 12.0941 14.1015 12.1962 14.0606 12.3086C14.0196 12.4209 14.0035 12.5408 14.0133 12.66L14.094 13.6086C14.0981 13.6643 14.0911 13.7201 14.0736 13.7731C14.056 13.826 14.0281 13.8749 13.9916 13.9171C13.955 13.9592 13.9105 13.9937 13.8606 14.0185C13.8107 14.0434 13.7563 14.0582 13.7007 14.062C13.608 14.0696 13.5154 14.0476 13.436 13.9993L12.4073 13.388C12.232 13.2842 12.0261 13.2444 11.8247 13.2753C11.7267 13.2906 11.6447 13.302 11.5793 13.3106C11.3687 13.3373 11.1527 13.352 10.9333 13.352C9.13733 13.352 7.60133 12.4133 6.97133 11.0846ZM11.6227 11.958C11.9989 11.9001 12.3837 11.94 12.74 12.074C12.8335 11.6959 13.0272 11.35 13.3007 11.0726C13.334 11.0393 13.3587 11.0126 13.3713 10.998C13.6973 10.6213 13.8667 10.1893 13.8667 9.74263C13.8667 8.53997 12.598 7.46663 10.9333 7.46663C9.26867 7.46663 8 8.53997 8 9.74263C8 10.9453 9.26867 12.0186 10.9333 12.0186C11.094 12.0186 11.2533 12.008 11.4093 11.988C11.4627 11.9813 11.5347 11.9713 11.6227 11.9573V11.958Z" fill="white"/>
</g>
<defs>
<clipPath id="clip0_2729_1668">
<rect width="16" height="16" fill="white"/>
</clipPath>
</defs>
</svg>
