<svg width="48" height="48" viewBox="0 0 48 48" fill="none" xmlns="http://www.w3.org/2000/svg">
<rect width="48" height="48" fill="#3E3E3A"/>
<path d="M8 12H40M32 12L31.4588 10.3761C30.9342 8.8025 30.6718 8.01568 30.1854 7.43396C29.7558 6.92026 29.2042 6.52264 28.581 6.27756C27.8752 6 27.046 6 25.3872 6H22.6128C20.954 6 20.1248 6 19.419 6.27756C18.7958 6.52264 18.2442 6.92026 17.8146 7.43396C17.3281 8.01568 17.0658 8.8025 16.5413 10.3761L16 12M36 12V32.4C36 35.7604 36 37.4404 35.346 38.724C34.7708 39.853 33.853 40.7708 32.724 41.346C31.4404 42 29.7604 42 26.4 42H21.6C18.2397 42 16.5595 42 15.2761 41.346C14.1471 40.7708 13.2292 39.853 12.654 38.724C12 37.4404 12 35.7604 12 32.4V12M28 20V34M20 20V34" stroke="#D72525" stroke-width="5" stroke-linecap="round" stroke-linejoin="round"/>
</svg>
