<svg width="16" height="16" viewBox="0 0 16 16" fill="none" xmlns="http://www.w3.org/2000/svg">
<path d="M8 14.6667C4.318 14.6667 1.33333 11.682 1.33333 8.00004C1.33333 4.31804 4.318 1.33337 8 1.33337C11.682 1.33337 14.6667 4.31804 14.6667 8.00004C14.6667 11.682 11.682 14.6667 8 14.6667ZM8 13.3334C9.41449 13.3334 10.771 12.7715 11.7712 11.7713C12.7714 10.7711 13.3333 9.41453 13.3333 8.00004C13.3333 6.58555 12.7714 5.229 11.7712 4.2288C10.771 3.22861 9.41449 2.66671 8 2.66671C6.58551 2.66671 5.22896 3.22861 4.22876 4.2288C3.22857 5.229 2.66667 6.58555 2.66667 8.00004C2.66667 9.41453 3.22857 10.7711 4.22876 11.7713C5.22896 12.7715 6.58551 13.3334 8 13.3334ZM7.33333 10H8.66667V11.3334H7.33333V10ZM8.66667 8.90337V9.33337H7.33333V8.33337C7.33333 8.15656 7.40357 7.98699 7.52859 7.86197C7.65362 7.73695 7.82319 7.66671 8 7.66671C8.18938 7.6667 8.37487 7.6129 8.53488 7.51159C8.69489 7.41028 8.82284 7.26562 8.90385 7.09443C8.98485 6.92324 9.01558 6.73257 8.99245 6.5446C8.96933 6.35663 8.8933 6.1791 8.77322 6.03265C8.65314 5.8862 8.49394 5.77686 8.31415 5.71735C8.13435 5.65785 7.94136 5.65062 7.75762 5.69651C7.57387 5.7424 7.40694 5.83953 7.27624 5.97658C7.14554 6.11364 7.05645 6.285 7.01933 6.47071L5.71133 6.20871C5.79242 5.80343 5.97967 5.42695 6.25395 5.11776C6.52822 4.80858 6.87968 4.57776 7.27239 4.44892C7.66511 4.32008 8.08499 4.29783 8.48912 4.38445C8.89325 4.47107 9.26713 4.66345 9.57255 4.94192C9.87796 5.2204 10.1039 5.57498 10.2274 5.96942C10.3509 6.36385 10.3674 6.784 10.2752 7.18691C10.1831 7.58982 9.98563 7.96104 9.70301 8.26262C9.42039 8.56419 9.06275 8.78531 8.66667 8.90337Z" fill="white"/>
</svg>
