<svg width="32" height="32" viewBox="0 0 32 32" fill="none" xmlns="http://www.w3.org/2000/svg">
<path d="M10.6666 29.3337H21.3333C25.1045 29.3337 26.9901 29.3337 28.1617 28.1621C29.3333 26.9906 29.3333 25.1049 29.3333 21.3337V20.0004C29.3333 16.2292 29.3333 14.3436 28.1617 13.172C27.1372 12.1474 25.5666 12.0188 22.6666 12.0027M9.33329 12.0027C6.43325 12.0188 4.86271 12.1474 3.8382 13.1719C2.66663 14.3436 2.66663 16.2292 2.66663 20.0004V21.3337C2.66663 25.1049 2.66663 26.9906 3.8382 28.1621C4.23793 28.5618 4.72079 28.8252 5.33329 28.9988" stroke="white" stroke-width="2" stroke-linecap="round"/>
<path d="M16 2.66675V20.0001M16 20.0001L12 15.3334M16 20.0001L20 15.3334" stroke="white" stroke-width="2" stroke-linecap="round" stroke-linejoin="round"/>
</svg>
