<svg width="48" height="48" viewBox="0 0 48 48" fill="none" xmlns="http://www.w3.org/2000/svg">
<rect x="0.22876" width="47.7712" height="48" rx="23.8856" fill="#687366"/>
<path d="M28.8984 15.3297L32.6703 19.1016M12.2288 36L12.292 35.557C12.516 33.9896 12.6279 33.2059 12.8826 32.4741C13.1086 31.8248 13.4173 31.2073 13.8011 30.6371C14.2337 29.9943 14.7935 29.4345 15.9131 28.3149L31.4467 12.7812C32.4884 11.7396 34.1771 11.7396 35.2188 12.7812C36.2603 13.8228 36.2603 15.5116 35.2188 16.5532L19.4001 32.3718C18.3843 33.3876 17.8765 33.8955 17.298 34.2993C16.7845 34.6577 16.2308 34.9547 15.6481 35.1841C14.9916 35.4426 14.2875 35.5846 12.8795 35.8686L12.2288 36Z" stroke="white" stroke-width="2" stroke-linecap="round" stroke-linejoin="round"/>
</svg>
