<svg width="48" height="48" viewBox="0 0 48 48" fill="none" xmlns="http://www.w3.org/2000/svg">
<path d="M22 8H14.4C12.1598 8 11.0397 8 10.184 8.43598C9.43138 8.81948 8.81946 9.4314 8.43598 10.184C8 11.0397 8 12.1598 8 14.4V33.6C8 35.8402 8 36.9604 8.43598 37.816C8.81946 38.5686 9.43138 39.1806 10.184 39.564C11.0397 40 12.1598 40 14.4 40H33.6C35.8402 40 36.9604 40 37.816 39.564C38.5686 39.1806 39.1806 38.5686 39.564 37.816C40 36.9604 40 35.8402 40 33.6V25M31 11L36.6568 16.6569M21.5254 20.4746L34.822 7.17804C36.384 5.61594 38.9168 5.61594 40.4788 7.17804C42.041 8.74014 42.041 11.2728 40.4788 12.8349L26.7548 26.5588C25.2316 28.0822 24.47 28.8438 23.6024 29.4494C22.8324 29.9872 22.0018 30.4324 21.128 30.7764C20.1434 31.164 19.0876 31.377 16.9759 31.8032L16 32L16.0949 31.3356C16.4307 28.985 16.5986 27.8096 16.9806 26.7122C17.3195 25.7384 17.7825 24.8126 18.3581 23.9572C19.0068 22.9932 19.8464 22.1536 21.5254 20.4746Z" stroke="#CCCCCC" stroke-width="5" stroke-linecap="round" stroke-linejoin="round"/>
</svg>
