<svg width="32" height="32" viewBox="0 0 32 32" fill="none" xmlns="http://www.w3.org/2000/svg">
<path d="M20.7839 7.32967L24.5558 11.1016M4.11426 28L4.17754 27.557C4.40146 25.9896 4.51343 25.2059 4.7681 24.4741C4.99409 23.8248 5.30281 23.2073 5.68664 22.6371C6.11919 21.9943 6.67901 21.4345 7.79862 20.3149L23.3322 4.7812C24.3739 3.7396 26.0626 3.7396 27.1043 4.7812C28.1458 5.8228 28.1458 7.51157 27.1043 8.55317L11.2856 24.3718C10.2698 25.3876 9.76197 25.8955 9.1835 26.2993C8.67004 26.6577 8.11627 26.9547 7.53356 27.1841C6.87707 27.4426 6.17299 27.5846 4.76496 27.8686L4.11426 28Z" stroke="white" stroke-width="2" stroke-linecap="round" stroke-linejoin="round"/>
</svg>
