<svg width="16" height="17" viewBox="0 0 16 17" fill="none" xmlns="http://www.w3.org/2000/svg">
<g clip-path="url(#clip0_2733_2051)">
<path d="M3.99996 13.1667H12V6.60469L7.99996 2.96869L3.99996 6.60469V13.1667ZM12.6666 14.5H3.33329C3.15648 14.5 2.98691 14.4298 2.86189 14.3048C2.73686 14.1797 2.66663 14.0102 2.66663 13.8334V7.83336H0.666626L7.55129 1.57469C7.67403 1.46301 7.83401 1.40112 7.99996 1.40112C8.1659 1.40112 8.32589 1.46301 8.44863 1.57469L15.3333 7.83336H13.3333V13.8334C13.3333 14.0102 13.2631 14.1797 13.138 14.3048C13.013 14.4298 12.8434 14.5 12.6666 14.5ZM4.99996 9.16669H6.33329C6.33329 9.60872 6.50889 10.0326 6.82145 10.3452C7.13401 10.6578 7.55793 10.8334 7.99996 10.8334C8.44199 10.8334 8.86591 10.6578 9.17847 10.3452C9.49103 10.0326 9.66663 9.60872 9.66663 9.16669H11C11 9.96234 10.6839 10.7254 10.1213 11.288C9.55867 11.8506 8.79561 12.1667 7.99996 12.1667C7.20431 12.1667 6.44125 11.8506 5.87864 11.288C5.31603 10.7254 4.99996 9.96234 4.99996 9.16669Z" fill="#00FF00"/>
</g>
<defs>
<clipPath id="clip0_2733_2051">
<rect width="16" height="16" fill="white" transform="translate(0 0.5)"/>
</clipPath>
</defs>
</svg>
