<svg width="48" height="48" viewBox="0 0 48 48" fill="none" xmlns="http://www.w3.org/2000/svg">
<path d="M16 10.0001C14.0233 10.0016 12.9872 10.0268 12.184 10.436C11.4314 10.8195 10.8195 11.4314 10.436 12.184C10 13.0397 10 14.1598 10 16.4V35.6C10 37.8402 10 38.9604 10.436 39.816C10.8195 40.5686 11.4314 41.1806 12.184 41.564C13.0397 42 14.1598 42 16.4 42H31.6C33.8402 42 34.9604 42 35.816 41.564C36.5686 41.1806 37.1806 40.5686 37.564 39.816C38 38.9604 38 37.8402 38 35.6V16.4C38 14.1598 38 13.0397 37.564 12.184C37.1806 11.4314 36.5686 10.8195 35.816 10.436C35.0128 10.0268 33.9768 10.0016 32 10.0001M16 10.0001V14H32V10.0001M16 10.0001V9.41422C16 8.5087 16.3597 7.64028 17 7C17.6403 6.35972 18.5087 6 19.4142 6H28.5858C29.4912 6 30.3598 6.35972 31 7C31.6402 7.64028 32 8.5087 32 9.41422V10.0001M30 36C29.4328 33.7178 26.962 32 24 32C21.038 32 18.5673 33.7178 18 36M24 24H24.02M26 24C26 25.1046 25.1046 26 24 26C22.8954 26 22 25.1046 22 24C22 22.8954 22.8954 22 24 22C25.1046 22 26 22.8954 26 24Z" stroke="#CCCCCC" stroke-width="5" stroke-linecap="round" stroke-linejoin="round"/>
</svg>
