<svg width="16" height="16" viewBox="0 0 16 16" fill="none" xmlns="http://www.w3.org/2000/svg">
<path d="M13.3333 11.3334H14.6667V12.6667H1.33334V11.3334H2.66667V6.66671C2.66667 5.25222 3.22857 3.89567 4.22877 2.89547C5.22896 1.89528 6.58551 1.33337 8 1.33337C9.41449 1.33337 10.771 1.89528 11.7712 2.89547C12.7714 3.89567 13.3333 5.25222 13.3333 6.66671V11.3334ZM12 11.3334V6.66671C12 5.60584 11.5786 4.58843 10.8284 3.83828C10.0783 3.08813 9.06087 2.66671 8 2.66671C6.93914 2.66671 5.92172 3.08813 5.17158 3.83828C4.42143 4.58843 4 5.60584 4 6.66671V11.3334H12ZM6 14H10V15.3334H6V14Z" fill="white"/>
</svg>
