<svg width="60" height="60" viewBox="0 0 60 60" fill="none" xmlns="http://www.w3.org/2000/svg">
<path d="M16.1538 45.9487H43.8461C52.6153 45.9487 59.7948 38.8205 59.7948 30C59.7948 21.1795 52.6666 14.0513 43.8461 14.0513H16.1538C7.38457 14.0513 0.205078 21.1795 0.205078 30C0.205078 38.8205 7.38457 45.9487 16.1538 45.9487ZM16.1538 18.2564H43.8461C50.3076 18.2564 55.5897 23.5384 55.5897 30C55.5897 36.4615 50.3076 41.7436 43.8461 41.7436H16.1538C9.69226 41.7436 4.41021 36.4615 4.41021 30C4.41021 23.5384 9.69226 18.2564 16.1538 18.2564Z" fill="#4A4A4A"/>
<path d="M16.154 38.8718C21.0258 38.8718 25.0258 34.8718 25.0258 30C25.0258 25.1282 21.0258 21.1282 16.154 21.1282C11.2822 21.1282 7.28223 25.1282 7.28223 30C7.28223 34.8718 11.2822 38.8718 16.154 38.8718ZM16.154 25.3333C18.7181 25.3333 20.8207 27.4359 20.8207 30C20.8207 32.5641 18.7181 34.6666 16.154 34.6666C13.5899 34.6666 11.4874 32.5641 11.4874 30C11.4874 27.4359 13.5899 25.3333 16.154 25.3333Z" fill="#17AB13"/>
</svg>
